<?xml version="1.0" standalone="no"?><!-- Generator: Gravit.io --><svg xmlns="http://www.w3.org/2000/svg" xmlns:xlink="http://www.w3.org/1999/xlink" style="isolation:isolate" viewBox="0 0 560.875 87.5" width="560.875px" height="87.5px"><defs><clipPath id="_clipPath_m609YeUFeMCd7NBqoHVKqXhVNPIVVQYZ"><rect width="560.875" height="87.5"/></clipPath></defs><g clip-path="url(#_clipPath_m609YeUFeMCd7NBqoHVKqXhVNPIVVQYZ)"><linearGradient id="_lgradient_0" x1="-0.21514003417279554" y1="0.03809523809523804" x2="1.150583166183791" y2="0.9371428571428572" gradientTransform="matrix(560.875,0,0,87.5,0,0)" gradientUnits="userSpaceOnUse"><stop offset="0%" stop-opacity="1" style="stop-color:rgb(255,105,150)"/><stop offset="100%" stop-opacity="1" style="stop-color:rgb(83,75,137)"/></linearGradient><path d=" M 40.5 67.25 L 39.25 67.25 L 39.25 67.25 Q 37.438 67.25 36.156 66.563 L 36.156 66.563 L 36.156 66.563 Q 34.875 65.875 33.938 64.813 L 33.938 64.813 L 33.938 64.813 Q 33 63.75 32.344 62.438 L 32.344 62.438 L 32.344 62.438 Q 31.688 61.125 31.25 59.875 L 31.25 59.875 L 19.375 25.625 L 17.75 25.625 L 17.75 77.75 L 17.75 77.75 Q 17.75 79.75 17.5 81.5 L 17.5 81.5 L 17.5 81.5 Q 17.25 83.25 16.406 84.594 L 16.406 84.594 L 16.406 84.594 Q 15.563 85.938 13.906 86.719 L 13.906 86.719 L 13.906 86.719 Q 12.25 87.5 9.375 87.5 L 9.375 87.5 L 9.375 87.5 Q 6.125 87.5 4.25 86.719 L 4.25 86.719 L 4.25 86.719 Q 2.375 85.938 1.438 84.594 L 1.438 84.594 L 1.438 84.594 Q 0.5 83.25 0.25 81.5 L 0.25 81.5 L 0.25 81.5 Q 0 79.75 0 77.75 L 0 77.75 L 0 14.25 L 0 14.25 Q 0 11.563 0.156 9 L 0.156 9 L 0.156 9 Q 0.313 6.438 1.188 4.438 L 1.188 4.438 L 1.188 4.438 Q 2.063 2.438 3.969 1.219 L 3.969 1.219 L 3.969 1.219 Q 5.875 0 9.375 0 L 9.375 0 L 17.875 0 L 17.875 0 Q 20 0 21.469 0.156 L 21.469 0.156 L 21.469 0.156 Q 22.938 0.313 24.188 1.219 L 24.188 1.219 L 24.188 1.219 Q 25.438 2.125 26.656 4.125 L 26.656 4.125 L 26.656 4.125 Q 27.875 6.125 29.344 9.781 L 29.344 9.781 L 29.344 9.781 Q 30.813 13.438 32.75 19.094 L 32.75 19.094 L 32.75 19.094 Q 34.688 24.75 37.5 33 L 37.5 33 L 39.125 38 L 40.625 38 L 42.625 31.75 L 42.625 31.75 Q 45.188 23.875 47 18.438 L 47 18.438 L 47 18.438 Q 48.813 13 50.188 9.469 L 50.188 9.469 L 50.188 9.469 Q 51.563 5.938 52.656 4.031 L 52.656 4.031 L 52.656 4.031 Q 53.75 2.125 54.969 1.219 L 54.969 1.219 L 54.969 1.219 Q 56.188 0.313 57.625 0.156 L 57.625 0.156 L 57.625 0.156 Q 59.063 0 61.125 0 L 61.125 0 L 70.25 0 L 70.25 0 Q 73.75 0 75.656 1.219 L 75.656 1.219 L 75.656 1.219 Q 77.563 2.438 78.438 4.438 L 78.438 4.438 L 78.438 4.438 Q 79.313 6.438 79.469 9 L 79.469 9 L 79.469 9 Q 79.625 11.563 79.625 14.25 L 79.625 14.25 L 79.625 77.75 L 79.625 77.75 Q 79.625 79.75 79.375 81.5 L 79.375 81.5 L 79.375 81.5 Q 79.125 83.25 78.188 84.594 L 78.188 84.594 L 78.188 84.594 Q 77.25 85.938 75.375 86.719 L 75.375 86.719 L 75.375 86.719 Q 73.5 87.5 70.25 87.5 L 70.25 87.5 L 70.25 87.5 Q 67.375 87.5 65.719 86.719 L 65.719 86.719 L 65.719 86.719 Q 64.063 85.938 63.219 84.594 L 63.219 84.594 L 63.219 84.594 Q 62.375 83.25 62.125 81.5 L 62.125 81.5 L 62.125 81.5 Q 61.875 79.75 61.875 77.75 L 61.875 77.75 L 61.875 25.625 L 60.125 25.625 L 48.375 59.875 L 48.375 59.875 Q 47.875 61.125 47.25 62.438 L 47.25 62.438 L 47.25 62.438 Q 46.625 63.75 45.688 64.813 L 45.688 64.813 L 45.688 64.813 Q 44.75 65.875 43.5 66.563 L 43.5 66.563 L 43.5 66.563 Q 42.25 67.25 40.5 67.25 L 40.5 67.25 Z  M 148.375 48 L 148.375 51.875 L 148.375 51.875 Q 148.375 52.875 148.25 54.219 L 148.25 54.219 L 148.25 54.219 Q 148.125 55.563 147.281 56.781 L 147.281 56.781 L 147.281 56.781 Q 146.438 58 144.625 58.875 L 144.625 58.875 L 144.625 58.875 Q 142.813 59.75 139.5 59.75 L 139.5 59.75 L 114.625 59.75 L 114.625 65.75 L 114.625 65.75 Q 114.625 67.25 115 68.875 L 115 68.875 L 115 68.875 Q 115.375 70.5 116.281 71.875 L 116.281 71.875 L 116.281 71.875 Q 117.188 73.25 118.688 74.125 L 118.688 74.125 L 118.688 74.125 Q 120.188 75 122.375 75 L 122.375 75 L 122.375 75 Q 124.875 75 126.219 74.406 L 126.219 74.406 L 126.219 74.406 Q 127.563 73.813 128.344 72.938 L 128.344 72.938 L 128.344 72.938 Q 129.125 72.063 129.75 71.063 L 129.75 71.063 L 129.75 71.063 Q 130.375 70.063 131.406 69.188 L 131.406 69.188 L 131.406 69.188 Q 132.438 68.313 134.281 67.719 L 134.281 67.719 L 134.281 67.719 Q 136.125 67.125 139.375 67.125 L 139.375 67.125 L 139.375 67.125 Q 140.938 67.125 142.406 67.375 L 142.406 67.375 L 142.406 67.375 Q 143.875 67.625 145 68.313 L 145 68.313 L 145 68.313 Q 146.125 69 146.813 70.219 L 146.813 70.219 L 146.813 70.219 Q 147.5 71.438 147.5 73.375 L 147.5 73.375 L 147.5 73.375 Q 147.5 77.438 144.938 80.156 L 144.938 80.156 L 144.938 80.156 Q 142.375 82.875 138.5 84.5 L 138.5 84.5 L 138.5 84.5 Q 134.625 86.125 130.094 86.813 L 130.094 86.813 L 130.094 86.813 Q 125.563 87.5 121.625 87.5 L 121.625 87.5 L 121.625 87.5 Q 116.438 87.438 111.75 86.188 L 111.75 86.188 L 111.75 86.188 Q 107.063 84.938 103.469 82.188 L 103.469 82.188 L 103.469 82.188 Q 99.875 79.438 97.75 75 L 97.75 75 L 97.75 75 Q 95.625 70.563 95.625 64.125 L 95.625 64.125 L 95.625 49.5 L 95.625 49.5 Q 95.625 43.563 97.031 39.438 L 97.031 39.438 L 97.031 39.438 Q 98.438 35.313 100.688 32.563 L 100.688 32.563 L 100.688 32.563 Q 102.938 29.813 105.75 28.281 L 105.75 28.281 L 105.75 28.281 Q 108.563 26.75 111.438 26 L 111.438 26 L 111.438 26 Q 114.313 25.25 116.906 25.063 L 116.906 25.063 L 116.906 25.063 Q 119.5 24.875 121.375 24.875 L 121.375 24.875 L 121.375 24.875 Q 127.688 24.875 132.156 26 L 132.156 26 L 132.156 26 Q 136.625 27.125 139.625 28.938 L 139.625 28.938 L 139.625 28.938 Q 142.625 30.75 144.375 33.125 L 144.375 33.125 L 144.375 33.125 Q 146.125 35.5 147 38.031 L 147 38.031 L 147 38.031 Q 147.875 40.563 148.125 43.156 L 148.125 43.156 L 148.125 43.156 Q 148.375 45.75 148.375 48 L 148.375 48 Z  M 114.625 46 L 114.625 50.375 L 130.25 50.375 L 130.25 50.375 Q 130.25 47.438 130.094 45.156 L 130.094 45.156 L 130.094 45.156 Q 129.938 42.875 129.156 41.313 L 129.156 41.313 L 129.156 41.313 Q 128.375 39.75 126.719 38.938 L 126.719 38.938 L 126.719 38.938 Q 125.063 38.125 122 38.125 L 122 38.125 L 122 38.125 Q 119.438 38.125 117.969 38.938 L 117.969 38.938 L 117.969 38.938 Q 116.5 39.75 115.75 40.969 L 115.75 40.969 L 115.75 40.969 Q 115 42.188 114.813 43.563 L 114.813 43.563 L 114.813 43.563 Q 114.625 44.938 114.625 46 L 114.625 46 Z  M 204.125 87.5 L 204.125 87.5 L 204.125 87.5 Q 200.938 87.5 199.063 86.281 L 199.063 86.281 L 199.063 86.281 Q 197.188 85.063 196.188 83.063 L 196.188 83.063 L 196.188 83.063 Q 195.188 81.063 194.906 78.531 L 194.906 78.531 L 194.906 78.531 Q 194.625 76 194.625 73.375 L 194.625 73.375 L 194.625 48.625 L 194.625 48.625 Q 194.625 46.938 194.469 45.313 L 194.469 45.313 L 194.469 45.313 Q 194.313 43.688 193.75 42.438 L 193.75 42.438 L 193.75 42.438 Q 193.188 41.188 192.094 40.406 L 192.094 40.406 L 192.094 40.406 Q 191 39.625 189.125 39.625 L 189.125 39.625 L 189.125 39.625 Q 186.625 39.625 185.063 41.313 L 185.063 41.313 L 185.063 41.313 Q 183.5 43 182.594 45.906 L 182.594 45.906 L 182.594 45.906 Q 181.688 48.813 181.344 52.75 L 181.344 52.75 L 181.344 52.75 Q 181 56.688 181 61.25 L 181 61.25 L 181 73.375 L 181 73.375 Q 181 76 180.719 78.531 L 180.719 78.531 L 180.719 78.531 Q 180.438 81.063 179.469 83.063 L 179.469 83.063 L 179.469 83.063 Q 178.5 85.063 176.625 86.281 L 176.625 86.281 L 176.625 86.281 Q 174.75 87.5 171.5 87.5 L 171.5 87.5 L 171.5 87.5 Q 168.25 87.5 166.375 86.281 L 166.375 86.281 L 166.375 86.281 Q 164.5 85.063 163.531 83.063 L 163.531 83.063 L 163.531 83.063 Q 162.563 81.063 162.281 78.531 L 162.281 78.531 L 162.281 78.531 Q 162 76 162 73.375 L 162 73.375 L 162 39.125 L 162 39.125 Q 162 36.5 162.219 33.969 L 162.219 33.969 L 162.219 33.969 Q 162.438 31.438 163.375 29.438 L 163.375 29.438 L 163.375 29.438 Q 164.313 27.438 166.219 26.219 L 166.219 26.219 L 166.219 26.219 Q 168.125 25 171.5 25 L 171.5 25 L 171.5 25 Q 174.938 25 176.844 26.156 L 176.844 26.156 L 176.844 26.156 Q 178.75 27.313 179.688 28.969 L 179.688 28.969 L 179.688 28.969 Q 180.625 30.625 180.813 32.438 L 180.813 32.438 L 180.813 32.438 Q 181 34.25 181 35.5 L 181 35.5 L 181 35.5 Q 181.563 33.688 182.781 31.813 L 182.781 31.813 L 182.781 31.813 Q 184 29.938 185.875 28.438 L 185.875 28.438 L 185.875 28.438 Q 187.75 26.938 190.188 25.969 L 190.188 25.969 L 190.188 25.969 Q 192.625 25 195.625 25 L 195.625 25 L 195.625 25 Q 199.75 25 203.625 27 L 203.625 27 L 203.625 27 Q 207.5 29 210.25 33.5 L 210.25 33.5 L 210.25 33.5 Q 211.188 31.375 213 29.781 L 213 29.781 L 213 29.781 Q 214.813 28.188 217.125 27.125 L 217.125 27.125 L 217.125 27.125 Q 219.438 26.063 222.063 25.531 L 222.063 25.531 L 222.063 25.531 Q 224.688 25 227.25 25 L 227.25 25 L 227.25 25 Q 230.688 25 234.125 26.125 L 234.125 26.125 L 234.125 26.125 Q 237.563 27.25 240.313 29.875 L 240.313 29.875 L 240.313 29.875 Q 243.063 32.5 244.781 36.719 L 244.781 36.719 L 244.781 36.719 Q 246.5 40.938 246.5 47.125 L 246.5 47.125 L 246.5 73.375 L 246.5 73.375 Q 246.5 76 246.188 78.531 L 246.188 78.531 L 246.188 78.531 Q 245.875 81.063 244.875 83.063 L 244.875 83.063 L 244.875 83.063 Q 243.875 85.063 241.969 86.281 L 241.969 86.281 L 241.969 86.281 Q 240.063 87.5 236.875 87.5 L 236.875 87.5 L 236.875 87.5 Q 233.625 87.5 231.719 86.281 L 231.719 86.281 L 231.719 86.281 Q 229.813 85.063 228.813 83.063 L 228.813 83.063 L 228.813 83.063 Q 227.813 81.063 227.531 78.531 L 227.531 78.531 L 227.531 78.531 Q 227.25 76 227.25 73.375 L 227.25 73.375 L 227.25 48.625 L 227.25 48.625 Q 227.25 46.938 227.063 45.313 L 227.063 45.313 L 227.063 45.313 Q 226.875 43.688 226.313 42.438 L 226.313 42.438 L 226.313 42.438 Q 225.75 41.188 224.625 40.406 L 224.625 40.406 L 224.625 40.406 Q 223.5 39.625 221.625 39.625 L 221.625 39.625 L 221.625 39.625 Q 219.625 39.625 218.219 40.875 L 218.219 40.875 L 218.219 40.875 Q 216.813 42.125 215.875 44.313 L 215.875 44.313 L 215.875 44.313 Q 214.938 46.5 214.438 49.531 L 214.438 49.531 L 214.438 49.531 Q 213.938 52.563 213.75 56.125 L 213.75 56.125 L 213.75 73.375 L 213.75 73.375 Q 213.75 76 213.469 78.531 L 213.469 78.531 L 213.469 78.531 Q 213.188 81.063 212.188 83.063 L 212.188 83.063 L 212.188 83.063 Q 211.188 85.063 209.281 86.281 L 209.281 86.281 L 209.281 86.281 Q 207.375 87.5 204.125 87.5 Z  M 312.375 48 L 312.375 51.875 L 312.375 51.875 Q 312.375 52.875 312.25 54.219 L 312.25 54.219 L 312.25 54.219 Q 312.125 55.563 311.281 56.781 L 311.281 56.781 L 311.281 56.781 Q 310.438 58 308.625 58.875 L 308.625 58.875 L 308.625 58.875 Q 306.813 59.75 303.5 59.75 L 303.5 59.75 L 278.625 59.75 L 278.625 65.75 L 278.625 65.75 Q 278.625 67.25 279 68.875 L 279 68.875 L 279 68.875 Q 279.375 70.5 280.281 71.875 L 280.281 71.875 L 280.281 71.875 Q 281.188 73.25 282.688 74.125 L 282.688 74.125 L 282.688 74.125 Q 284.188 75 286.375 75 L 286.375 75 L 286.375 75 Q 288.875 75 290.219 74.406 L 290.219 74.406 L 290.219 74.406 Q 291.563 73.813 292.344 72.938 L 292.344 72.938 L 292.344 72.938 Q 293.125 72.063 293.75 71.063 L 293.75 71.063 L 293.75 71.063 Q 294.375 70.063 295.406 69.188 L 295.406 69.188 L 295.406 69.188 Q 296.438 68.313 298.281 67.719 L 298.281 67.719 L 298.281 67.719 Q 300.125 67.125 303.375 67.125 L 303.375 67.125 L 303.375 67.125 Q 304.938 67.125 306.406 67.375 L 306.406 67.375 L 306.406 67.375 Q 307.875 67.625 309 68.313 L 309 68.313 L 309 68.313 Q 310.125 69 310.813 70.219 L 310.813 70.219 L 310.813 70.219 Q 311.5 71.438 311.5 73.375 L 311.5 73.375 L 311.5 73.375 Q 311.5 77.438 308.938 80.156 L 308.938 80.156 L 308.938 80.156 Q 306.375 82.875 302.5 84.5 L 302.5 84.5 L 302.5 84.5 Q 298.625 86.125 294.094 86.813 L 294.094 86.813 L 294.094 86.813 Q 289.563 87.5 285.625 87.5 L 285.625 87.5 L 285.625 87.5 Q 280.438 87.438 275.75 86.188 L 275.75 86.188 L 275.75 86.188 Q 271.063 84.938 267.469 82.188 L 267.469 82.188 L 267.469 82.188 Q 263.875 79.438 261.75 75 L 261.75 75 L 261.75 75 Q 259.625 70.563 259.625 64.125 L 259.625 64.125 L 259.625 49.5 L 259.625 49.5 Q 259.625 43.563 261.031 39.438 L 261.031 39.438 L 261.031 39.438 Q 262.438 35.313 264.688 32.563 L 264.688 32.563 L 264.688 32.563 Q 266.938 29.813 269.75 28.281 L 269.75 28.281 L 269.75 28.281 Q 272.563 26.75 275.438 26 L 275.438 26 L 275.438 26 Q 278.313 25.25 280.906 25.063 L 280.906 25.063 L 280.906 25.063 Q 283.5 24.875 285.375 24.875 L 285.375 24.875 L 285.375 24.875 Q 291.688 24.875 296.156 26 L 296.156 26 L 296.156 26 Q 300.625 27.125 303.625 28.938 L 303.625 28.938 L 303.625 28.938 Q 306.625 30.75 308.375 33.125 L 308.375 33.125 L 308.375 33.125 Q 310.125 35.5 311 38.031 L 311 38.031 L 311 38.031 Q 311.875 40.563 312.125 43.156 L 312.125 43.156 L 312.125 43.156 Q 312.375 45.75 312.375 48 L 312.375 48 Z  M 278.625 46 L 278.625 50.375 L 294.25 50.375 L 294.25 50.375 Q 294.25 47.438 294.094 45.156 L 294.094 45.156 L 294.094 45.156 Q 293.938 42.875 293.156 41.313 L 293.156 41.313 L 293.156 41.313 Q 292.375 39.75 290.719 38.938 L 290.719 38.938 L 290.719 38.938 Q 289.063 38.125 286 38.125 L 286 38.125 L 286 38.125 Q 283.438 38.125 281.969 38.938 L 281.969 38.938 L 281.969 38.938 Q 280.5 39.75 279.75 40.969 L 279.75 40.969 L 279.75 40.969 Q 279 42.188 278.813 43.563 L 278.813 43.563 L 278.813 43.563 Q 278.625 44.938 278.625 46 L 278.625 46 Z  M 378 47.25 L 378 73.25 L 378 73.25 Q 378 75.938 377.688 78.5 L 377.688 78.5 L 377.688 78.5 Q 377.375 81.063 376.344 83.063 L 376.344 83.063 L 376.344 83.063 Q 375.313 85.063 373.406 86.281 L 373.406 86.281 L 373.406 86.281 Q 371.5 87.5 368.25 87.5 L 368.25 87.5 L 368.25 87.5 Q 365.063 87.5 363.188 86.281 L 363.188 86.281 L 363.188 86.281 Q 361.313 85.063 360.313 83.063 L 360.313 83.063 L 360.313 83.063 Q 359.313 81.063 359.031 78.5 L 359.031 78.5 L 359.031 78.5 Q 358.75 75.938 358.75 73.25 L 358.75 73.25 L 358.75 48.875 L 358.75 48.875 Q 358.75 47.125 358.594 45.438 L 358.594 45.438 L 358.594 45.438 Q 358.438 43.75 357.875 42.469 L 357.875 42.469 L 357.875 42.469 Q 357.313 41.188 356.219 40.406 L 356.219 40.406 L 356.219 40.406 Q 355.125 39.625 353.25 39.625 L 353.25 39.625 L 353.25 39.625 Q 350.688 39.625 349.125 41.313 L 349.125 41.313 L 349.125 41.313 Q 347.563 43 346.656 45.938 L 346.656 45.938 L 346.656 45.938 Q 345.75 48.875 345.438 52.844 L 345.438 52.844 L 345.438 52.844 Q 345.125 56.813 345.125 61.375 L 345.125 61.375 L 345.125 73.25 L 345.125 73.25 Q 345.125 75.938 344.813 78.5 L 344.813 78.5 L 344.813 78.5 Q 344.5 81.063 343.469 83.063 L 343.469 83.063 L 343.469 83.063 Q 342.438 85.063 340.531 86.281 L 340.531 86.281 L 340.531 86.281 Q 338.625 87.5 335.375 87.5 L 335.375 87.5 L 335.375 87.5 Q 332.188 87.5 330.313 86.281 L 330.313 86.281 L 330.313 86.281 Q 328.438 85.063 327.438 83.063 L 327.438 83.063 L 327.438 83.063 Q 326.438 81.063 326.156 78.5 L 326.156 78.5 L 326.156 78.5 Q 325.875 75.938 325.875 73.25 L 325.875 73.25 L 325.875 39.125 L 325.875 39.125 Q 325.875 36.438 326.063 33.906 L 326.063 33.906 L 326.063 33.906 Q 326.25 31.375 327.188 29.406 L 327.188 29.406 L 327.188 29.406 Q 328.125 27.438 330.031 26.219 L 330.031 26.219 L 330.031 26.219 Q 331.938 25 335.375 25 L 335.375 25 L 335.375 25 Q 338.813 25 340.75 26.156 L 340.75 26.156 L 340.75 26.156 Q 342.688 27.313 343.656 28.938 L 343.656 28.938 L 343.656 28.938 Q 344.625 30.563 344.875 32.375 L 344.875 32.375 L 344.875 32.375 Q 345.125 34.188 345.125 35.5 L 345.125 35.5 L 345.125 35.5 Q 345.625 33.688 346.688 31.813 L 346.688 31.813 L 346.688 31.813 Q 347.75 29.938 349.406 28.438 L 349.406 28.438 L 349.406 28.438 Q 351.063 26.938 353.375 25.969 L 353.375 25.969 L 353.375 25.969 Q 355.688 25 358.75 25 L 358.75 25 L 358.75 25 Q 362.188 25 365.625 26.125 L 365.625 26.125 L 365.625 26.125 Q 369.063 27.25 371.813 29.875 L 371.813 29.875 L 371.813 29.875 Q 374.563 32.5 376.281 36.75 L 376.281 36.75 L 376.281 36.75 Q 378 41 378 47.25 L 378 47.25 Z  M 442.125 14.25 L 442.125 73.375 L 442.125 73.375 Q 442.125 76 441.938 78.531 L 441.938 78.531 L 441.938 78.531 Q 441.75 81.063 440.813 83.063 L 440.813 83.063 L 440.813 83.063 Q 439.875 85.063 438 86.281 L 438 86.281 L 438 86.281 Q 436.125 87.5 432.75 87.5 L 432.75 87.5 L 432.75 87.5 Q 429.313 87.5 427.375 86.344 L 427.375 86.344 L 427.375 86.344 Q 425.438 85.188 424.5 83.531 L 424.5 83.531 L 424.5 83.531 Q 423.563 81.875 423.344 80.063 L 423.344 80.063 L 423.344 80.063 Q 423.125 78.25 423.125 77 L 423.125 77 L 423.125 77 Q 422.563 78.813 421.531 80.688 L 421.531 80.688 L 421.531 80.688 Q 420.5 82.563 418.875 84.063 L 418.875 84.063 L 418.875 84.063 Q 417.25 85.563 414.969 86.531 L 414.969 86.531 L 414.969 86.531 Q 412.688 87.5 409.625 87.5 L 409.625 87.5 L 409.625 87.5 Q 406.188 87.5 402.75 86.375 L 402.75 86.375 L 402.75 86.375 Q 399.313 85.25 396.563 82.625 L 396.563 82.625 L 396.563 82.625 Q 393.813 80 392.094 75.781 L 392.094 75.781 L 392.094 75.781 Q 390.375 71.563 390.375 65.375 L 390.375 65.375 L 390.375 47.25 L 390.375 47.25 Q 390.375 41 392.094 36.781 L 392.094 36.781 L 392.094 36.781 Q 393.813 32.563 396.563 29.969 L 396.563 29.969 L 396.563 29.969 Q 399.313 27.375 402.75 26.25 L 402.75 26.25 L 402.75 26.25 Q 406.188 25.125 409.625 25.125 L 409.625 25.125 L 409.625 25.125 Q 412.688 25.125 414.969 26.063 L 414.969 26.063 L 414.969 26.063 Q 417.25 27 418.875 28.5 L 418.875 28.5 L 418.875 28.5 Q 420.5 30 421.531 31.875 L 421.531 31.875 L 421.531 31.875 Q 422.563 33.75 423.125 35.625 L 423.125 35.625 L 423.125 14.25 L 423.125 14.25 Q 423.125 11.563 423.406 8.969 L 423.406 8.969 L 423.406 8.969 Q 423.688 6.375 424.656 4.406 L 424.656 4.406 L 424.656 4.406 Q 425.625 2.438 427.531 1.219 L 427.531 1.219 L 427.531 1.219 Q 429.438 0 432.75 0 L 432.75 0 L 432.75 0 Q 435.875 0 437.75 1.219 L 437.75 1.219 L 437.75 1.219 Q 439.625 2.438 440.594 4.406 L 440.594 4.406 L 440.594 4.406 Q 441.563 6.375 441.844 8.969 L 441.844 8.969 L 441.844 8.969 Q 442.125 11.563 442.125 14.25 L 442.125 14.25 Z  M 409.625 48.625 L 409.625 63.75 L 409.625 63.75 Q 409.625 65.438 409.75 67.063 L 409.75 67.063 L 409.75 67.063 Q 409.875 68.688 410.438 70 L 410.438 70 L 410.438 70 Q 411 71.313 412.094 72.094 L 412.094 72.094 L 412.094 72.094 Q 413.188 72.875 415.125 72.875 L 415.125 72.875 L 415.125 72.875 Q 417.563 72.875 419.094 71.781 L 419.094 71.781 L 419.094 71.781 Q 420.625 70.688 421.5 68.406 L 421.5 68.406 L 421.5 68.406 Q 422.375 66.125 422.719 62.656 L 422.719 62.656 L 422.719 62.656 Q 423.063 59.188 423.125 54.375 L 423.125 54.375 L 423.125 54.375 Q 423.125 52.438 422.781 49.906 L 422.781 49.906 L 422.781 49.906 Q 422.438 47.375 421.563 45.125 L 421.563 45.125 L 421.563 45.125 Q 420.688 42.875 419.125 41.313 L 419.125 41.313 L 419.125 41.313 Q 417.563 39.75 415.125 39.75 L 415.125 39.75 L 415.125 39.75 Q 413.188 39.75 412.094 40.531 L 412.094 40.531 L 412.094 40.531 Q 411 41.313 410.438 42.563 L 410.438 42.563 L 410.438 42.563 Q 409.875 43.813 409.75 45.406 L 409.75 45.406 L 409.75 45.406 Q 409.625 47 409.625 48.625 L 409.625 48.625 Z  M 507.5 48 L 507.5 51.875 L 507.5 51.875 Q 507.5 52.875 507.375 54.219 L 507.375 54.219 L 507.375 54.219 Q 507.25 55.563 506.406 56.781 L 506.406 56.781 L 506.406 56.781 Q 505.563 58 503.75 58.875 L 503.75 58.875 L 503.75 58.875 Q 501.938 59.75 498.625 59.75 L 498.625 59.75 L 473.75 59.75 L 473.75 65.75 L 473.75 65.75 Q 473.75 67.25 474.125 68.875 L 474.125 68.875 L 474.125 68.875 Q 474.5 70.5 475.406 71.875 L 475.406 71.875 L 475.406 71.875 Q 476.313 73.25 477.813 74.125 L 477.813 74.125 L 477.813 74.125 Q 479.313 75 481.5 75 L 481.5 75 L 481.5 75 Q 484 75 485.344 74.406 L 485.344 74.406 L 485.344 74.406 Q 486.688 73.813 487.469 72.938 L 487.469 72.938 L 487.469 72.938 Q 488.25 72.063 488.875 71.063 L 488.875 71.063 L 488.875 71.063 Q 489.5 70.063 490.531 69.188 L 490.531 69.188 L 490.531 69.188 Q 491.563 68.313 493.406 67.719 L 493.406 67.719 L 493.406 67.719 Q 495.25 67.125 498.5 67.125 L 498.5 67.125 L 498.5 67.125 Q 500.063 67.125 501.531 67.375 L 501.531 67.375 L 501.531 67.375 Q 503 67.625 504.125 68.313 L 504.125 68.313 L 504.125 68.313 Q 505.25 69 505.938 70.219 L 505.938 70.219 L 505.938 70.219 Q 506.625 71.438 506.625 73.375 L 506.625 73.375 L 506.625 73.375 Q 506.625 77.438 504.063 80.156 L 504.063 80.156 L 504.063 80.156 Q 501.5 82.875 497.625 84.5 L 497.625 84.5 L 497.625 84.5 Q 493.75 86.125 489.219 86.813 L 489.219 86.813 L 489.219 86.813 Q 484.688 87.5 480.75 87.5 L 480.75 87.5 L 480.75 87.5 Q 475.563 87.438 470.875 86.188 L 470.875 86.188 L 470.875 86.188 Q 466.188 84.938 462.594 82.188 L 462.594 82.188 L 462.594 82.188 Q 459 79.438 456.875 75 L 456.875 75 L 456.875 75 Q 454.75 70.563 454.75 64.125 L 454.75 64.125 L 454.75 49.5 L 454.75 49.5 Q 454.75 43.563 456.156 39.438 L 456.156 39.438 L 456.156 39.438 Q 457.563 35.313 459.813 32.563 L 459.813 32.563 L 459.813 32.563 Q 462.063 29.813 464.875 28.281 L 464.875 28.281 L 464.875 28.281 Q 467.688 26.75 470.563 26 L 470.563 26 L 470.563 26 Q 473.438 25.25 476.031 25.063 L 476.031 25.063 L 476.031 25.063 Q 478.625 24.875 480.5 24.875 L 480.5 24.875 L 480.5 24.875 Q 486.813 24.875 491.281 26 L 491.281 26 L 491.281 26 Q 495.75 27.125 498.75 28.938 L 498.75 28.938 L 498.75 28.938 Q 501.75 30.75 503.5 33.125 L 503.5 33.125 L 503.5 33.125 Q 505.25 35.5 506.125 38.031 L 506.125 38.031 L 506.125 38.031 Q 507 40.563 507.25 43.156 L 507.25 43.156 L 507.25 43.156 Q 507.5 45.75 507.5 48 L 507.5 48 Z  M 473.75 46 L 473.75 50.375 L 489.375 50.375 L 489.375 50.375 Q 489.375 47.438 489.219 45.156 L 489.219 45.156 L 489.219 45.156 Q 489.063 42.875 488.281 41.313 L 488.281 41.313 L 488.281 41.313 Q 487.5 39.75 485.844 38.938 L 485.844 38.938 L 485.844 38.938 Q 484.188 38.125 481.125 38.125 L 481.125 38.125 L 481.125 38.125 Q 478.563 38.125 477.094 38.938 L 477.094 38.938 L 477.094 38.938 Q 475.625 39.75 474.875 40.969 L 474.875 40.969 L 474.875 40.969 Q 474.125 42.188 473.938 43.563 L 473.938 43.563 L 473.938 43.563 Q 473.75 44.938 473.75 46 L 473.75 46 Z  M 560.875 34.375 L 560.875 34.375 L 560.875 34.375 Q 560.875 39.25 558.469 41.5 L 558.469 41.5 L 558.469 41.5 Q 556.063 43.75 551.625 43.75 L 551.625 43.75 L 551.625 43.75 Q 551 43.75 549.844 43.844 L 549.844 43.844 L 549.844 43.844 Q 548.688 43.938 547.375 44.344 L 547.375 44.344 L 547.375 44.344 Q 546.063 44.75 544.719 45.531 L 544.719 45.531 L 544.719 45.531 Q 543.375 46.313 542.25 47.656 L 542.25 47.656 L 542.25 47.656 Q 541.125 49 540.438 51.063 L 540.438 51.063 L 540.438 51.063 Q 539.75 53.125 539.75 56 L 539.75 56 L 539.75 73.875 L 539.75 73.875 Q 539.75 76.438 539.469 78.875 L 539.469 78.875 L 539.469 78.875 Q 539.188 81.313 538.188 83.219 L 538.188 83.219 L 538.188 83.219 Q 537.188 85.125 535.313 86.313 L 535.313 86.313 L 535.313 86.313 Q 533.438 87.5 530.25 87.5 L 530.25 87.5 L 530.25 87.5 Q 527.125 87.5 525.313 86.313 L 525.313 86.313 L 525.313 86.313 Q 523.5 85.125 522.531 83.219 L 522.531 83.219 L 522.531 83.219 Q 521.563 81.313 521.281 78.875 L 521.281 78.875 L 521.281 78.875 Q 521 76.438 521 73.875 L 521 73.875 L 521 38.875 L 521 38.875 Q 521 36.25 521.281 33.781 L 521.281 33.781 L 521.281 33.781 Q 521.563 31.313 522.531 29.375 L 522.531 29.375 L 522.531 29.375 Q 523.5 27.438 525.313 26.281 L 525.313 26.281 L 525.313 26.281 Q 527.125 25.125 530.25 25.125 L 530.25 25.125 L 530.25 25.125 Q 533.438 25.125 535.156 26.531 L 535.156 26.531 L 535.156 26.531 Q 536.875 27.938 537.688 30.156 L 537.688 30.156 L 537.688 30.156 Q 538.5 32.375 538.625 35.094 L 538.625 35.094 L 538.625 35.094 Q 538.75 37.813 538.75 40.375 L 538.75 40.375 L 539.75 40.375 L 539.75 40.375 Q 540.625 36.875 542.063 34.031 L 542.063 34.031 L 542.063 34.031 Q 543.5 31.188 545.25 29.219 L 545.25 29.219 L 545.25 29.219 Q 547 27.25 549 26.188 L 549 26.188 L 549 26.188 Q 551 25.125 553 25.125 L 553 25.125 L 553 25.125 Q 555.438 25.125 556.969 25.656 L 556.969 25.656 L 556.969 25.656 Q 558.5 26.188 559.375 27.313 L 559.375 27.313 L 559.375 27.313 Q 560.25 28.438 560.563 30.188 L 560.563 30.188 L 560.563 30.188 Q 560.875 31.938 560.875 34.375 Z " fill="url(#_lgradient_0)"/></g></svg>